<svg id="visual" viewBox="0 0 900 170" width="900" height="170" xmlns="http://www.w3.org/2000/svg" xmlns:xlink="http://www.w3.org/1999/xlink" version="1.1"><rect x="0" y="0" width="900" height="170" fill="#ffffff"></rect><defs><linearGradient id="grad1_0" x1="81.1%" y1="0%" x2="100%" y2="100%"><stop offset="-55.882352941176464%" stop-color="#3b82f6" stop-opacity="1"></stop><stop offset="155.88235294117646%" stop-color="#3b82f6" stop-opacity="1"></stop></linearGradient></defs><defs><linearGradient id="grad1_1" x1="81.1%" y1="0%" x2="100%" y2="100%"><stop offset="-55.882352941176464%" stop-color="#3b82f6" stop-opacity="1"></stop><stop offset="155.88235294117646%" stop-color="#afbefc" stop-opacity="1"></stop></linearGradient></defs><defs><linearGradient id="grad1_2" x1="81.1%" y1="0%" x2="100%" y2="100%"><stop offset="-55.882352941176464%" stop-color="#ffffff" stop-opacity="1"></stop><stop offset="155.88235294117646%" stop-color="#afbefc" stop-opacity="1"></stop></linearGradient></defs><defs><linearGradient id="grad2_0" x1="0%" y1="0%" x2="18.9%" y2="100%"><stop offset="-55.882352941176464%" stop-color="#3b82f6" stop-opacity="1"></stop><stop offset="155.88235294117646%" stop-color="#3b82f6" stop-opacity="1"></stop></linearGradient></defs><defs><linearGradient id="grad2_1" x1="0%" y1="0%" x2="18.9%" y2="100%"><stop offset="-55.882352941176464%" stop-color="#afbefc" stop-opacity="1"></stop><stop offset="155.88235294117646%" stop-color="#3b82f6" stop-opacity="1"></stop></linearGradient></defs><defs><linearGradient id="grad2_2" x1="0%" y1="0%" x2="18.9%" y2="100%"><stop offset="-55.882352941176464%" stop-color="#afbefc" stop-opacity="1"></stop><stop offset="155.88235294117646%" stop-color="#ffffff" stop-opacity="1"></stop></linearGradient></defs><g transform="translate(900, 0)"><path d="M0 170C-14.3 149.8 -28.6 129.6 -51.7 124.7C-74.7 119.9 -106.5 130.3 -120.2 120.2C-133.9 110.1 -129.6 79.3 -134.9 55.9C-140.2 32.4 -155.1 16.2 -170 0L0 0Z" fill="#d8defe"></path><path d="M0 113.3C-9.5 99.9 -19.1 86.4 -34.4 83.1C-49.8 79.9 -71 86.9 -80.1 80.1C-89.3 73.4 -86.4 52.9 -89.9 37.2C-93.5 21.6 -103.4 10.8 -113.3 0L0 0Z" fill="#809ff9"></path><path d="M0 56.7C-4.8 49.9 -9.5 43.2 -17.2 41.6C-24.9 40 -35.5 43.4 -40.1 40.1C-44.6 36.7 -43.2 26.4 -45 18.6C-46.7 10.8 -51.7 5.4 -56.7 0L0 0Z" fill="#3b82f6"></path></g><g transform="translate(0, 170)"><path d="M0 -170C27.3 -172.8 54.7 -175.6 65.1 -157.1C75.4 -138.5 68.9 -98.7 81.3 -81.3C93.8 -64 125.2 -69.1 143.2 -59.3C161.2 -49.5 165.6 -24.8 170 0L0 0Z" fill="#d8defe"></path><path d="M0 -113.3C18.2 -115.2 36.4 -117.1 43.4 -104.7C50.3 -92.4 45.9 -65.8 54.2 -54.2C62.5 -42.6 83.5 -46.1 95.5 -39.5C107.4 -33 110.4 -16.5 113.3 0L0 0Z" fill="#809ff9"></path><path d="M0 -56.7C9.1 -57.6 18.2 -58.5 21.7 -52.4C25.1 -46.2 23 -32.9 27.1 -27.1C31.3 -21.3 41.7 -23 47.7 -19.8C53.7 -16.5 55.2 -8.3 56.7 0L0 0Z" fill="#3b82f6"></path></g></svg>